PathFileType        4      (X/Y/Z)      C:\Users\mrr\Desktop\moco_PFJCF\transformed_exp_static.trc         
DataRate	CameraRate	NumFrames	NumMarkers	Units	OrigDataRate	OrigDataStartFrame	OrigNumFrames
200.0	200.0	4	64	mm	200.0	1	652
Frame#	Time	R.Shoulder			L.Shoulder			R.Clavicle			L.Clavicle			R.Biceps			R.Elbow			R.MElbow			R.Forearm			R.Wrist			L.Biceps			L.Elbow			L.MElbow			L.Forearm			L.Wrist			R.ASIS			L.ASIS			R.PSIS			S2			L.PSIS			R.TH1			R.TH2			R.TH3			R.Knee			R.MKnee			R.SH1			R.SH2			R.SH3			R.SH4			R.Ankle			R.MAnkle			R.Heel			R.MT5			R.Toe			L.TH1			L.TH2			L.TH3			L.TH4			L.Knee			L.MKnee			L.SH1			L.SH2			L.SH3			L.Ankle			L.MAnkle			L.Heel			L.MT5			L.Toe			R_HJC			L_HJC			L.HeelGround			L.ToeGround			L.MT5Ground			L.AnkleJoint			L.AnkleJointGround			L.KneeJoint			R.HeelGround			R.ToeGround			R.MT5Ground			R.AnkleJoint			R.AnkleJointGround			R.KneeJoint			MidASIS			MidPSIS			MidClavicle			
		X1	Y1	Z1	X2	Y2	Z2	X3	Y3	Z3	X4	Y4	Z4	X5	Y5	Z5	X6	Y6	Z6	X7	Y7	Z7	X8	Y8	Z8	X9	Y9	Z9	X10	Y10	Z10	X11	Y11	Z11	X12	Y12	Z12	X13	Y13	Z13	X14	Y14	Z14	X15	Y15	Z15	X16	Y16	Z16	X17	Y17	Z17	X18	Y18	Z18	X19	Y19	Z19	X20	Y20	Z20	X21	Y21	Z21	X22	Y22	Z22	X23	Y23	Z23	X24	Y24	Z24	X25	Y25	Z25	X26	Y26	Z26	X27	Y27	Z27	X28	Y28	Z28	X29	Y29	Z29	X30	Y30	Z30	X31	Y31	Z31	X32	Y32	Z32	X33	Y33	Z33	X34	Y34	Z34	X35	Y35	Z35	X36	Y36	Z36	X37	Y37	Z37	X38	Y38	Z38	X39	Y39	Z39	X40	Y40	Z40	X41	Y41	Z41	X42	Y42	Z42	X43	Y43	Z43	X44	Y44	Z44	X45	Y45	Z45	X46	Y46	Z46	X47	Y47	Z47	X48	Y48	Z48	X49	Y49	Z49	X50	Y50	Z50	X51	Y51	Z51	X52	Y52	Z52	X53	Y53	Z53	X54	Y54	Z54	X55	Y55	Z55	X56	Y56	Z56	X57	Y57	Z57	X58	Y58	Z58	X59	Y59	Z59	X60	Y60	Z60	X61	Y61	Z61	X62	Y62	Z62	X63	Y63	Z63	X64	Y64	Z64	
1	0.0	-253.82199999999997	1371.536	-411.755	-254.45699999999994	1387.954	-740.305	-206.85599999999997	1347.254	-558.63	-203.06999999999996	1350.057	-597.466	-189.17699999999996	1193.744	-350.033	-66.40999999999998	1132.667	-301.659	-81.73199999999997	1103.161	-357.263	42.39000000000002	1130.23	-365.642	165.70400000000004	1145.885	-329.442	-152.02699999999993	1238.985	-810.691	-84.05399999999995	1130.938	-839.92	-95.69199999999995	1110.515	-775.756	7.793000000000051	1099.224	-832.757	145.74300000000005	1159.129	-821.55	-128.72199999999998	961.056	-441.16	-136.09599999999995	956.544	-707.252	-306.08099999999996	950.258	-522.067	-311.43299999999994	945.857	-563.638	-316.67999999999995	958.534	-616.713	-180.20899999999997	735.753	-369.721	-271.844	724.658	-420.763	-277.798	593.365	-414.824	-239.24699999999999	484.445	-380.205	-196.01999999999998	463.903	-493.513	-227.71499999999997	407.363	-357.826	-247.60699999999997	304.32	-317.971	-305.858	406.292	-386.733	-321.815	289.278	-359.24	-270.775	103.263	-319.294	-249.07199999999997	105.574	-397.253	-328.677	58.224	-364.373	-163.97699999999998	45.484	-277.23	-111.68099999999998	67.117	-336.913	-169.88999999999993	778.884	-761.228	-174.50799999999995	645.992	-748.86	-274.66099999999994	793.513	-750.648	-288.66299999999995	659.457	-725.093	-250.51599999999993	494.699	-742.812	-238.29899999999998	474.529	-617.019	-220.71699999999996	400.588	-738.604	-312.97799999999995	415.89	-745.436	-322.56399999999996	300.753	-767.48	-282.2219999999999	103.644	-770.286	-268.35599999999994	102.756	-692.129	-345.94399999999996	54.321	-724.543	-179.81299999999993	44.158	-806.136	-125.77199999999996	66.894	-750.369	-175.48499999999999	855.895	-471.282	-192.11299999999997	864.281	-671.268	-345.94399999999996	0.0	-724.543	-125.77199999999996	0.0	-750.369	-179.81299999999993	0.0	-806.136	-275.28899999999993	103.2	-731.2075	-275.28899999999993	0.0	-731.2075	-244.40749999999997	484.61400000000003	-679.9155000000001	-328.677	0.0	-364.373	-111.68099999999998	0.0	-336.913	-163.97699999999998	0.0	-277.23	-259.9235	104.4185	-358.2735	-259.9235	0.0	-358.2735	-217.6335	474.174	-436.859	-132.40899999999996	958.8	-574.206	-311.3804999999999	954.396	-569.39	-204.96299999999997	1348.6554999999998	-578.048	
2	0.005	-253.86799999999997	1371.455	-411.715	-254.45299999999995	1387.997	-740.31	-206.73799999999997	1347.401	-558.559	-203.12299999999996	1349.975	-597.321	-189.16499999999996	1193.757	-350.001	-66.48799999999999	1132.685	-301.746	-81.69799999999996	1103.558	-357.837	42.37000000000002	1130.594	-365.67	165.67000000000002	1145.95	-329.255	-152.01199999999994	1239.199	-810.799	-84.07599999999994	1131.183	-839.891	-94.51899999999996	1109.591	-774.497	7.766000000000051	1099.48	-832.725	145.64500000000007	1159.234	-821.571	-128.71499999999997	960.938	-441.217	-136.06799999999996	956.724	-707.203	-306.24099999999993	950.735	-521.958	-311.38399999999996	946.034	-563.723	-316.84899999999993	959.139	-616.971	-180.22799999999998	735.627	-369.708	-271.841	724.44	-420.855	-277.74	593.454	-414.497	-239.35099999999997	484.458	-380.203	-196.02499999999998	463.927	-493.524	-227.76999999999998	407.179	-357.906	-247.65199999999996	304.022	-317.962	-305.985	406.501	-386.763	-321.809	289.586	-359.074	-270.767	103.26	-319.358	-249.05499999999998	105.592	-397.252	-328.696	58.287	-364.099	-163.92299999999997	45.397	-277.131	-111.76799999999999	67.281	-336.825	-169.90799999999993	779.202	-761.144	-174.49199999999993	646.17	-748.777	-274.5849999999999	794.001	-750.843	-288.68699999999995	659.689	-725.035	-250.54199999999994	495.033	-742.779	-238.21399999999997	474.754	-617.127	-220.71799999999993	400.809	-738.517	-312.9719999999999	416.268	-745.588	-322.5489999999999	301.082	-767.441	-282.37699999999995	104.035	-770.578	-268.26399999999995	102.754	-692.052	-346.56999999999994	53.484	-723.578	-179.81899999999993	44.386	-806.028	-125.72599999999996	66.872	-750.228	-175.77199999999996	855.915	-471.42	-192.33499999999998	864.548	-671.4	-346.56999999999994	0.0	-723.578	-125.72599999999996	0.0	-750.228	-179.81899999999993	0.0	-806.028	-275.3205	103.3945	-731.315	-275.3205	0.0	-731.315	-244.37799999999996	484.8935	-679.953	-328.696	0.0	-364.099	-111.76799999999999	0.0	-336.825	-163.92299999999997	0.0	-277.131	-259.911	104.426	-358.305	-259.911	0.0	-358.305	-217.68799999999996	474.1925	-436.8635	-132.39149999999998	958.831	-574.21	-311.5449999999999	954.937	-569.4645	-204.93049999999997	1348.688	-577.94	
3	0.01	-253.89199999999997	1371.333	-411.744	-254.39999999999995	1388.094	-740.365	-206.71499999999997	1347.333	-558.464	-203.00399999999996	1349.933	-597.101	-189.18799999999996	1193.613	-350.079	-66.51399999999998	1132.688	-301.725	-81.69299999999997	1103.607	-357.872	42.380000000000024	1130.847	-365.587	165.62900000000002	1145.998	-329.015	-151.98899999999995	1239.381	-810.726	-84.10899999999994	1131.417	-839.862	-94.52599999999995	1109.188	-774.56	7.758000000000051	1099.683	-832.684	145.66300000000007	1159.308	-821.468	-128.75499999999997	960.827	-441.249	-136.01799999999994	956.992	-707.262	-306.28799999999995	951.114	-521.889	-311.22399999999993	945.85	-564.266	-316.92699999999996	959.687	-617.038	-180.26699999999997	735.4	-369.79	-271.853	724.125	-420.98	-277.732	593.446	-414.209	-239.35699999999997	484.341	-380.128	-196.06499999999997	463.92	-493.644	-227.74099999999999	407.029	-357.935	-247.65599999999998	303.761	-317.958	-305.978	406.612	-386.477	-321.804	289.71	-358.753	-270.744	103.235	-319.454	-249.06599999999997	105.621	-397.258	-328.718	58.328	-363.839	-163.94399999999996	45.278	-277.059	-111.79799999999999	67.381	-336.688	-169.93199999999993	779.488	-761.101	-174.47899999999996	646.393	-748.706	-274.58699999999993	794.374	-751.113	-288.68899999999996	659.939	-725.008	-250.55799999999994	495.274	-742.724	-238.17799999999997	474.822	-617.169	-220.70399999999995	401.018	-738.459	-313.04999999999995	416.555	-745.679	-322.5419999999999	301.339	-767.417	-282.42699999999996	104.367	-770.787	-268.23999999999995	102.482	-692.033	-346.5729999999999	53.714	-723.456	-179.80399999999995	44.615	-805.954	-125.68599999999996	66.772	-750.122	-175.90299999999996	855.879	-471.671	-192.36099999999996	864.843	-671.646	-346.5729999999999	0.0	-723.456	-125.68599999999996	0.0	-750.122	-179.80399999999995	0.0	-805.954	-275.33349999999996	103.4245	-731.4100000000001	-275.33349999999996	0.0	-731.4100000000001	-244.36799999999997	485.048	-679.9465	-328.718	0.0	-363.839	-111.79799999999999	0.0	-336.688	-163.94399999999996	0.0	-277.059	-259.90500000000003	104.428	-358.356	-259.90500000000003	0.0	-358.356	-217.71099999999998	474.1305	-436.88599999999997	-132.38649999999998	958.9095	-574.2555	-311.60749999999996	955.4005	-569.4635000000001	-204.85949999999997	1348.633	-577.7825	
4	0.015	-253.91299999999998	1371.134	-411.742	-254.34499999999994	1388.188	-740.391	-206.72999999999996	1347.164	-558.391	-203.06299999999996	1349.793	-596.957	-189.18199999999996	1193.49	-350.014	-66.54199999999999	1132.526	-301.657	-81.70199999999997	1103.618	-357.957	42.438000000000024	1130.95	-365.388	165.62700000000004	1146.068	-328.805	-151.99099999999996	1239.585	-810.654	-84.12399999999994	1131.662	-839.841	-94.50999999999996	1108.897	-774.431	7.729000000000051	1099.884	-832.668	145.63100000000006	1159.188	-821.137	-128.62299999999996	960.702	-441.113	-135.95999999999995	957.223	-707.179	-306.45099999999996	951.617	-521.987	-311.1859999999999	945.916	-564.268	-317.01899999999995	960.366	-617.282	-180.24999999999997	735.253	-369.786	-271.952	723.606	-421.349	-277.541	593.652	-413.626	-239.23999999999998	484.083	-380.232	-196.02599999999998	463.986	-493.505	-227.77099999999996	406.851	-357.897	-247.72199999999998	303.426	-317.9	-305.953	406.723	-386.198	-321.797	289.781	-358.573	-270.717	103.205	-319.649	-249.07299999999998	105.649	-397.266	-328.75	58.396	-363.563	-163.94899999999998	45.142	-277.011	-111.71799999999999	67.374	-336.46	-169.53499999999994	778.977	-759.141	-174.45299999999995	646.606	-748.628	-274.54799999999994	794.688	-751.101	-288.70099999999996	660.266	-725.079	-250.54499999999993	495.54	-742.719	-238.12199999999999	474.838	-617.217	-220.66499999999994	401.267	-738.372	-313.00899999999996	416.739	-745.604	-322.54099999999994	301.685	-767.535	-282.68399999999997	104.723	-771.106	-268.23499999999996	102.346	-691.789	-346.60099999999994	53.958	-723.351	-179.79199999999994	44.828	-805.856	-125.66799999999996	66.651	-749.941	-176.16499999999996	855.887	-471.795	-192.50099999999998	865.15	-671.766	-346.60099999999994	0.0	-723.351	-125.66799999999996	0.0	-749.941	-179.79199999999994	0.0	-805.856	-275.4595	103.53450000000001	-731.4475	-275.4595	0.0	-731.4475	-244.3335	485.189	-679.9680000000001	-328.75	0.0	-363.563	-111.71799999999999	0.0	-336.46	-163.94899999999998	0.0	-277.011	-259.895	104.42699999999999	-358.4575	-259.895	0.0	-358.4575	-217.63299999999998	474.0345	-436.86850000000004	-132.29149999999996	958.9625	-574.146	-311.73499999999996	955.9915	-569.6345	-204.89649999999997	1348.4785	-577.674	
